<svg width="24" height="12" viewBox="0 0 24 12" fill="none" xmlns="http://www.w3.org/2000/svg">
<path d="M0.87736 9.10455L4.74736 13.0146C4.84032 13.1083 4.95092 13.1827 5.07278 13.2334C5.19464 13.2842 5.32535 13.3103 5.45736 13.3103C5.58937 13.3103 5.72008 13.2842 5.84194 13.2334C5.9638 13.1827 6.0744 13.1083 6.16736 13.0146C6.26109 12.9216 6.33548 12.811 6.38625 12.6891C6.43702 12.5673 6.46316 12.4366 6.46316 12.3046C6.46316 12.1725 6.43702 12.0418 6.38625 11.92C6.33548 11.7981 6.26109 11.6875 6.16736 11.5945L2.60736 8.01455H22.9974C23.2626 8.01455 23.5169 7.90919 23.7045 7.72166C23.892 7.53412 23.9974 7.27977 23.9974 7.01455C23.9974 6.74933 23.892 6.49498 23.7045 6.30744C23.5169 6.11991 23.2626 6.01455 22.9974 6.01455H2.54736L6.16736 2.39455C6.34465 2.20857 6.44355 1.96149 6.44355 1.70455C6.44355 1.44761 6.34465 1.20052 6.16736 1.01455C6.0744 0.92082 5.9638 0.846425 5.84194 0.795657C5.72008 0.744888 5.58937 0.71875 5.45736 0.71875C5.32535 0.71875 5.19464 0.744888 5.07278 0.795657C4.95092 0.846425 4.84032 0.92082 4.74736 1.01455L0.87736 4.86455C0.315558 5.42705 0 6.18955 0 6.98455C0 7.77955 0.315558 8.54205 0.87736 9.10455Z" fill="#2A285F"/>
</svg>
