<svg width="28" height="28" viewBox="0 0 28 28" fill="none" xmlns="http://www.w3.org/2000/svg">
<path d="M27.5002 10.605H8.52516C8.37873 10.605 8.23374 10.6338 8.09846 10.6899C7.96319 10.7459 7.84027 10.828 7.73673 10.9316C7.6332 11.0351 7.55106 11.158 7.49503 11.2933C7.439 11.4286 7.41016 11.5736 7.41016 11.72V23.16C7.41016 23.3064 7.439 23.4514 7.49503 23.5867C7.55106 23.722 7.6332 23.8449 7.73673 23.9484C7.84027 24.0519 7.96319 24.1341 8.09846 24.1901C8.23374 24.2461 8.37873 24.275 8.52516 24.275H27.5002C27.7959 24.275 28.0795 24.1575 28.2886 23.9484C28.4977 23.7393 28.6152 23.4557 28.6152 23.16V11.72C28.6152 11.4243 28.4977 11.1407 28.2886 10.9316C28.0795 10.7225 27.7959 10.605 27.5002 10.605ZM27.3952 23.055H8.63016V16.525H27.3802L27.3952 23.055ZM27.3952 14.21H8.63016V11.825H27.3802L27.3952 14.21Z" fill="#B3C1CD"/>
<path d="M24.4419 19.5701H21.8069C21.5252 19.5701 21.2969 19.7984 21.2969 20.0801V21.3751C21.2969 21.6567 21.5252 21.8851 21.8069 21.8851H24.4419C24.7235 21.8851 24.9519 21.6567 24.9519 21.3751V20.0801C24.9519 19.7984 24.7235 19.5701 24.4419 19.5701Z" fill="#B3C1CD"/>
<path d="M23.4734 7.7251H4.49844C4.20533 7.72904 3.92556 7.84825 3.71969 8.05693C3.51382 8.26561 3.39841 8.54696 3.39844 8.8401V20.2801C3.39841 20.5732 3.51382 20.8546 3.71969 21.0633C3.92556 21.2719 4.20533 21.3912 4.49844 21.3951H6.57344V20.1751H4.61844V13.6451H6.58844V11.4101C6.58844 11.3851 6.58844 11.3601 6.58844 11.3351H4.61844V8.9451H23.3684V9.7851H24.5884V8.8401C24.5884 8.54438 24.471 8.26078 24.2619 8.05167C24.0528 7.84257 23.7692 7.7251 23.4734 7.7251Z" fill="#B3C1CD"/>
</svg>
