<svg width="32" height="32" viewBox="0 0 32 32" fill="none" xmlns="http://www.w3.org/2000/svg">
<path d="M19.9688 23.2485H4.03125C2.84231 23.2485 1.875 22.2812 1.875 21.0922V9.74756C1.875 9.33337 2.21077 8.99756 2.625 8.99756C3.03923 8.99756 3.375 9.33337 3.375 9.74756V21.0922C3.375 21.4541 3.66938 21.7485 4.03125 21.7485H19.9688C20.3306 21.7485 20.625 21.4541 20.625 21.0922V9.74756C20.625 9.33337 20.9608 8.99756 21.375 8.99756C21.7892 8.99756 22.125 9.33337 22.125 9.74756V21.0922C22.125 22.2812 21.1577 23.2485 19.9688 23.2485Z" fill="#365083"/>
<path d="M23.25 12.3722C23.058 12.3722 22.8661 12.299 22.7197 12.1525L13.3921 2.82502C12.6245 2.05739 11.3755 2.05739 10.6079 2.82502L1.28033 12.1526C0.987457 12.4455 0.512566 12.4455 0.219691 12.1526C-0.0732305 11.8597 -0.0732305 11.3848 0.219691 11.0919L9.54725 1.76433C10.8997 0.411891 13.1003 0.411891 14.4527 1.76433L23.7803 11.0919C24.0732 11.3848 24.0732 11.8597 23.7803 12.1525C23.6339 12.299 23.4419 12.3722 23.25 12.3722Z" fill="#365083"/>
<path d="M15 23.2483H9C8.58577 23.2483 8.25 22.9125 8.25 22.4983V15.842C8.25 14.5497 9.30141 13.4983 10.5938 13.4983H13.4062C14.6986 13.4983 15.75 14.5497 15.75 15.842V22.4983C15.75 22.9125 15.4142 23.2483 15 23.2483ZM9.75 21.7483H14.25V15.842C14.25 15.3768 13.8715 14.9983 13.4062 14.9983H10.5938C10.1285 14.9983 9.75 15.3768 9.75 15.842V21.7483Z" fill="#365083"/>
</svg>
