<svg width="32" height="32" viewBox="0 0 32 32" fill="none" xmlns="http://www.w3.org/2000/svg">
<path d="M6.99003 16.2276L5.39069 21.0637L5.14991 20.7426C5.07112 20.6376 4.94564 20.578 4.82227 20.5604C4.6989 20.5428 4.56176 20.5648 4.45672 20.6436L4.4567 20.6436L4.45481 20.6451L1.09615 23.2925L1.09572 23.2919L1.08734 23.3003C0.993282 23.3944 0.947344 23.4894 0.905132 23.616L0.9 23.6314V23.6476L0.899994 23.6575C0.8999 23.7678 0.899802 23.8832 1.00385 23.9904L5.93734 30.2658C6.04002 30.4171 6.19381 30.4649 6.33435 30.4649C6.43741 30.4649 6.53504 30.416 6.60749 30.3797L6.61615 30.3754L6.6253 30.3708L6.63333 30.3645L9.99199 27.717L9.99243 27.7176L10.0008 27.7092C10.0949 27.6152 10.1408 27.5202 10.183 27.3935L10.1881 27.3781V27.3619L10.1882 27.352C10.1882 27.2415 10.1883 27.1258 10.0836 27.0184L9.83447 26.7139C10.7436 26.5113 11.7833 26.1678 12.8244 25.6511C12.8258 25.6518 12.8274 25.6526 12.8291 25.6535C12.8381 25.6579 12.8527 25.6654 12.8684 25.6713C12.8845 25.6773 12.9069 25.6838 12.9331 25.6838H26.6049C26.7461 25.6838 26.8716 25.6363 26.962 25.5458C27.0525 25.4554 27.1 25.3299 27.1 25.1887V0.99499C27.1 0.696293 26.851 0.499854 26.6049 0.499854H12.8936C12.7524 0.499854 12.6269 0.547379 12.5364 0.637805C12.446 0.728232 12.3985 0.853725 12.3985 0.99499V12.7691L11.1862 12.8793C11.1861 12.8793 11.1859 12.8793 11.1858 12.8793C9.24844 13.0409 7.59503 14.3725 6.99011 16.2273C6.99008 16.2274 6.99006 16.2275 6.99003 16.2276ZM11.2415 13.8689L11.2415 13.8689L11.2437 13.8687L12.359 13.7608V18.5899V18.5901V18.5903V18.5906V18.5908V18.591V18.5913V18.5915V18.5917V18.592V18.5922V18.5924V18.5926V18.5929V18.5931V18.5933V18.5936V18.5938V18.594V18.5943V18.5945V18.5947V18.595V18.5952V18.5954V18.5957V18.5959V18.5961V18.5963V18.5966V18.5968V18.597V18.5973V18.5975V18.5977V18.598V18.5982V18.5984V18.5987V18.5989V18.5991V18.5993V18.5996V18.5998V18.6V18.6003V18.6005V18.6007V18.601V18.6012V18.6014V18.6016V18.6019V18.6021V18.6023V18.6026V18.6028V18.603V18.6032V18.6035V18.6037V18.6039V18.6042V18.6044V18.6046V18.6048V18.6051V18.6053V18.6055V18.6057V18.606V18.6062V18.6064V18.6067V18.6069V18.6071V18.6073V18.6076V18.6078V18.608V18.6082V18.6085V18.6087V18.6089V18.6091V18.6094V18.6096V18.6098V18.61V18.6103V18.6105V18.6107V18.6109V18.6112V18.6114V18.6116V18.6118V18.6121V18.6123V18.6125V18.6127V18.6129V18.6132V18.6134V18.6136V18.6138V18.6141V18.6143V18.6145V18.6147V18.6149V18.6152V18.6154V18.6156V18.6158V18.616V18.6163V18.6165V18.6167V18.6169V18.6171V18.6174V18.6176V18.6178V18.618V18.6182V18.6185V18.6187V18.6189V18.6191V18.6193V18.6195V18.6198V18.62V18.6202V18.6204V18.6206V18.6208V18.621V18.6213V18.6215V18.6217V18.6219V18.6221V18.6223V18.6225V18.6228V18.623V18.6232V18.6234V18.6236V18.6238V18.624V18.6242V18.6244V18.6247V18.6249V18.6251V18.6253V18.6255V18.6257V18.6259V18.6261V18.6263V18.6265V18.6267V18.627V18.6272V18.6274V18.6276V18.6278V18.628V18.6282V18.6284V18.6286V18.6288V18.629V18.6292V18.6294V18.6296V18.6298V18.63V18.6302V18.6304V18.6306V18.6308V18.631V18.6312V18.6314V18.6316V18.6318V18.632V18.6322V18.6324V18.6326V18.6328V18.633V18.6332V18.6334V18.6336V18.6338V18.634V18.6342V18.6344V18.6346V18.6348V18.635V18.6352V18.6354V18.6356V18.6358V18.636V18.6361V18.6363V18.6365V18.6367V18.6369V18.6371V18.6373V18.6375V18.6377V18.6379V18.638V18.6382V18.6384V18.6386V18.6388V18.639V18.6392V18.6394V18.6395V18.6397V18.6399V18.6401V18.6403V18.6405V18.6406V18.6408V18.641V18.6412V18.6414V18.6415V18.6417V18.6419V18.6421V18.6423V18.6424V18.6426V18.6428V18.643V18.6432V18.6433V18.6435V18.6437V18.6439V18.644V18.6442V18.6444V18.6445V18.6447V18.6449V18.6451V18.6452V18.6454V18.6456V18.6457V18.6459V18.6461V18.6463V18.6464V18.6466V18.6468V18.6469V18.6471V18.6473V18.6474V18.6476V18.6477V18.6479V18.6481V18.6482V18.6484V18.6486V18.6487V18.6489V18.649V18.6492V18.6494V18.6495V18.6497V18.6498V18.65V18.6501V18.6503V18.6505V18.6506V18.6508V18.6509V18.6511V18.6512V18.6514V18.6515V18.6517V18.6518V18.652V18.6521V18.6523V18.6524V18.6526V18.6527V18.6529V18.653V18.6532V18.6533V18.6535V18.6536V18.6537V18.6539V18.654V18.6542V18.6543V18.6545V18.6546V18.6547V18.6549V18.655V18.6551V18.6553V18.6554V18.6556V18.6557V18.6558V18.656V18.6561V18.6562V18.6564V18.6565V18.6566V18.6568V18.6569V18.657V18.6571V18.6573V18.6574V18.6575V18.6577V18.6578V18.6579V18.658V18.6582V18.6583V18.6584V18.6585V18.6586V18.6588V18.6589V18.659V18.6591V18.6592V18.6594V18.6595V18.6596V18.6597V18.6598V18.6599V18.6601V18.6602V18.6603V18.6604V18.6605V18.6606V18.6607V18.6608V18.6609V18.6611V18.6612V18.6613V18.6614V18.6615V18.6616V18.6617V18.6618V18.6619V18.662V18.6621V18.6622V18.6623V18.6624V18.6625V18.6626V18.6627V18.6628V18.6629V18.663V18.6631V18.6632V18.6633V18.6634V18.6635V18.6635V18.6636V18.6637V18.6638V18.6639V18.664V18.6641V18.6642V18.6643V18.6643V18.6644V18.6645V18.6646V18.6647V18.6647V18.6648V18.6649V18.665V18.6651V18.6651V18.6652V18.6653V18.6654V18.6654V18.6655V18.6656V18.6657V18.6657V18.6658V18.6659V18.6659V18.666V18.6661V18.6662V18.6662V18.6663V18.6663V18.6664V18.6665V18.6665V18.6666V18.6667V18.6667V18.6668V18.6668V18.6669V18.667V18.667V18.6671V18.6671V18.6672V18.6672V18.6673V18.6673V18.6674V18.6674V18.6675V18.6675V18.6676V18.6676V18.6677V18.6677V18.6678V18.6678V18.6678V18.6679V18.6679V18.668V18.668V18.668V18.6681V18.6681V18.6682V18.6682V18.6682V18.6683V18.6683V18.6683V18.6684V18.6684V18.6684V18.6684V18.6685V18.6685V18.6685V18.6685V18.6686V18.6686V18.6686V18.6686V18.6687V18.6687V18.6687V18.6687V18.6687V18.6688V18.6688V18.6688V18.6688V18.6688V18.6689V18.6689V18.6689V18.8665C12.359 18.9359 12.3704 19.0082 12.3958 19.0715C12.4161 19.1224 12.4485 19.1746 12.4976 19.2109C12.5902 19.4191 12.7591 19.5816 12.9587 19.7018C13.3478 19.9601 13.8178 19.9559 14.2347 19.7891L14.2348 19.7894L14.2416 19.786L18.4301 17.7313L18.4301 17.7314L18.4334 17.7296C18.6671 17.6038 18.9404 17.5751 19.1999 17.6168C19.459 17.6584 19.6966 17.769 19.8585 17.912C19.8987 17.9522 19.939 17.9933 19.9662 18.036C19.986 18.0671 19.9927 18.0895 19.9929 18.106L19.9897 18.1092L19.9363 18.1626L14.8006 23.0218L14.8005 23.0217L14.7978 23.0245C13.061 24.7999 10.8251 25.51 9.14127 25.83L6.09058 21.9683L7.89097 16.528C7.89102 16.5279 7.89108 16.5277 7.89113 16.5275C8.3929 15.0614 9.70383 13.9842 11.2415 13.8689ZM20.5862 17.1717L20.5848 17.1705C20.0082 16.6762 18.9378 16.3842 18.0641 16.8412C18.0637 16.8413 18.0634 16.8415 18.063 16.8417L15.0878 18.3104V5.85898C16.2162 5.62616 17.1004 4.65551 17.288 3.38678H22.2503C22.4382 4.61535 23.3171 5.6215 24.4106 5.82164V20.2061C23.2836 20.439 22.4369 21.4087 22.2503 22.6388H17.2455C17.2139 22.459 17.1787 22.2959 17.1203 22.1339L20.667 18.821L20.6671 18.821L20.6695 18.8186C20.7927 18.6954 20.8811 18.567 20.9277 18.4327C21.15 18.0214 20.9585 17.5026 20.5862 17.1717ZM13.8816 18.8536L13.8731 18.8572L13.8655 18.8623C13.7991 18.9066 13.6926 18.894 13.5892 18.828C13.5162 18.7548 13.4596 18.6948 13.4283 18.6122V1.49013H26.1097V24.654H14.3985C14.7762 24.3809 15.1285 24.0758 15.4547 23.7174L16.2644 22.9414C16.2707 23.0132 16.2708 23.0855 16.2708 23.1735C16.2708 23.3147 16.3183 23.4402 16.4088 23.5306C16.4992 23.6211 16.6247 23.6686 16.766 23.6686H22.693C22.8343 23.6686 22.9598 23.6211 23.0502 23.5306C23.1406 23.4402 23.1881 23.3147 23.1881 23.1735C23.1881 22.0693 23.9858 21.1792 24.9058 21.1792C25.047 21.1792 25.1725 21.1317 25.263 21.0413C25.3534 20.9509 25.4009 20.8254 25.4009 20.6841V5.42052C25.4009 5.27926 25.3534 5.15376 25.263 5.06334C25.1725 4.97291 25.047 4.92539 24.9058 4.92539C23.9858 4.92539 23.1881 4.03535 23.1881 2.93116C23.1881 2.7899 23.1406 2.6644 23.0502 2.57398C22.9598 2.48355 22.8343 2.43602 22.693 2.43602H16.8055C16.6642 2.43602 16.5387 2.48355 16.4483 2.57398C16.3579 2.6644 16.3103 2.7899 16.3103 2.93116C16.3103 4.03685 15.5114 4.92539 14.6322 4.92539H14.5927C14.5218 4.92539 14.4582 4.93733 14.399 4.96364C14.3402 4.98976 14.2908 5.0278 14.2454 5.07322C14.2 5.11863 14.1619 5.16802 14.1358 5.22679C14.1095 5.286 14.0976 5.34958 14.0976 5.42052V18.761L13.8816 18.8536ZM6.35186 29.2373L2.04911 23.7436L4.65753 21.6941L8.95973 27.2255L6.35186 29.2373Z" fill="#B3C1CD" stroke="#B3C1CD" stroke-width="0.2"/>
</svg>
