<svg width="24" height="24" viewBox="0 0 24 24" fill="none" xmlns="http://www.w3.org/2000/svg">
<path d="M22.32 10.55L20.43 9.92L21.32 8.14C21.4102 7.95369 21.4404 7.74397 21.4064 7.53978C21.3723 7.33558 21.2758 7.14699 21.13 7L19 4.87C18.8522 4.72209 18.6618 4.62421 18.4555 4.59013C18.2493 4.55605 18.0375 4.58748 17.85 4.68L16.07 5.57L15.44 3.68C15.3735 3.483 15.2472 3.31163 15.0787 3.18975C14.9102 3.06787 14.7079 3.00155 14.5 3H11.5C11.2904 2.99946 11.0858 3.06482 10.9154 3.18685C10.7449 3.30887 10.6171 3.48138 10.55 3.68L9.92 5.57L8.14 4.68C7.95369 4.58978 7.74397 4.55961 7.53978 4.59364C7.33558 4.62767 7.14699 4.72423 7 4.87L4.87 7C4.72209 7.14777 4.62421 7.33818 4.59013 7.54446C4.55605 7.75074 4.58748 7.96251 4.68 8.15L5.57 9.93L3.68 10.56C3.483 10.6265 3.31163 10.7528 3.18975 10.9213C3.06787 11.0898 3.00155 11.2921 3 11.5V14.5C2.99946 14.7096 3.06482 14.9142 3.18685 15.0846C3.30887 15.2551 3.48138 15.3829 3.68 15.45L5.57 16.08L4.68 17.86C4.58978 18.0463 4.55961 18.256 4.59364 18.4602C4.62767 18.6644 4.72423 18.853 4.87 19L7 21.13C7.14777 21.2779 7.33818 21.3758 7.54446 21.4099C7.75074 21.444 7.96251 21.4125 8.15 21.32L9.93 20.43L10.56 22.32C10.6271 22.5186 10.7549 22.6911 10.9254 22.8132C11.0958 22.9352 11.3004 23.0005 11.51 23H14.51C14.7196 23.0005 14.9242 22.9352 15.0946 22.8132C15.2651 22.6911 15.3929 22.5186 15.46 22.32L16.09 20.43L17.87 21.32C18.0551 21.4079 18.2628 21.4369 18.4649 21.4029C18.667 21.3689 18.8538 21.2737 19 21.13L21.13 19C21.2779 18.8522 21.3758 18.6618 21.4099 18.4555C21.444 18.2493 21.4125 18.0375 21.32 17.85L20.43 16.07L22.32 15.44C22.517 15.3735 22.6884 15.2472 22.8103 15.0787C22.9321 14.9102 22.9985 14.7079 23 14.5V11.5C23.0005 11.2904 22.9352 11.0858 22.8132 10.9154C22.6911 10.7449 22.5186 10.6171 22.32 10.55ZM21 13.78L19.8 14.18C19.5241 14.2695 19.2709 14.418 19.0581 14.6151C18.8452 14.8122 18.6778 15.0533 18.5675 15.3216C18.4571 15.5899 18.4064 15.879 18.419 16.1688C18.4315 16.4586 18.5069 16.7422 18.64 17L19.21 18.14L18.11 19.24L17 18.64C16.7436 18.5122 16.4627 18.4411 16.1763 18.4313C15.89 18.4215 15.6049 18.4734 15.3403 18.5834C15.0758 18.6934 14.8379 18.8589 14.6429 19.0688C14.4479 19.2787 14.3003 19.5281 14.21 19.8L13.81 21H12.22L11.82 19.8C11.7305 19.5241 11.582 19.2709 11.3849 19.0581C11.1878 18.8452 10.9467 18.6778 10.6784 18.5675C10.4101 18.4571 10.1211 18.4064 9.83123 18.419C9.5414 18.4315 9.25777 18.5069 9 18.64L7.86 19.21L6.76 18.11L7.36 17C7.4931 16.7422 7.56852 16.4586 7.58105 16.1688C7.59358 15.879 7.5429 15.5899 7.43254 15.3216C7.32218 15.0533 7.15478 14.8122 6.94195 14.6151C6.72912 14.418 6.47595 14.2695 6.2 14.18L5 13.78V12.22L6.2 11.82C6.47595 11.7305 6.72912 11.582 6.94195 11.3849C7.15478 11.1878 7.32218 10.9467 7.43254 10.6784C7.5429 10.4101 7.59358 10.1211 7.58105 9.83123C7.56852 9.5414 7.4931 9.25777 7.36 9L6.79 7.89L7.89 6.79L9 7.36C9.25777 7.4931 9.5414 7.56852 9.83123 7.58105C10.1211 7.59358 10.4101 7.5429 10.6784 7.43254C10.9467 7.32218 11.1878 7.15478 11.3849 6.94195C11.582 6.72912 11.7305 6.47595 11.82 6.2L12.22 5H13.78L14.18 6.2C14.2695 6.47595 14.418 6.72912 14.6151 6.94195C14.8122 7.15478 15.0533 7.32218 15.3216 7.43254C15.5899 7.5429 15.879 7.59358 16.1688 7.58105C16.4586 7.56852 16.7422 7.4931 17 7.36L18.14 6.79L19.24 7.89L18.64 9C18.5122 9.25645 18.4411 9.53735 18.4313 9.82369C18.4215 10.11 18.4734 10.3951 18.5834 10.6597C18.6934 10.9242 18.8589 11.1621 19.0688 11.3571C19.2787 11.5521 19.5281 11.6997 19.8 11.79L21 12.19V13.78ZM13 9C12.2089 9 11.4355 9.2346 10.7777 9.67413C10.1199 10.1137 9.60724 10.7384 9.30448 11.4693C9.00173 12.2002 8.92252 13.0044 9.07686 13.7804C9.2312 14.5563 9.61217 15.269 10.1716 15.8284C10.731 16.3878 11.4437 16.7688 12.2196 16.9231C12.9956 17.0775 13.7998 16.9983 14.5307 16.6955C15.2616 16.3928 15.8864 15.8801 16.3259 15.2223C16.7654 14.5645 17 13.7911 17 13C17 11.9391 16.5786 10.9217 15.8284 10.1716C15.0783 9.42143 14.0609 9 13 9ZM13 15C12.6044 15 12.2178 14.8827 11.8889 14.6629C11.56 14.4432 11.3036 14.1308 11.1522 13.7654C11.0009 13.3999 10.9613 12.9978 11.0384 12.6098C11.1156 12.2219 11.3061 11.8655 11.5858 11.5858C11.8655 11.3061 12.2219 11.1156 12.6098 11.0384C12.9978 10.9613 13.3999 11.0009 13.7654 11.1522C14.1308 11.3036 14.4432 11.56 14.6629 11.8889C14.8827 12.2178 15 12.6044 15 13C15 13.5304 14.7893 14.0391 14.4142 14.4142C14.0391 14.7893 13.5304 15 13 15Z" fill="#365083"/>
</svg>
