<svg width="25" height="25" viewBox="0 0 25 25" fill="none" xmlns="http://www.w3.org/2000/svg">
<path d="M17.9075 14.8705C17.5613 14.613 17.0719 14.6849 16.8144 15.031C16.6728 15.2214 16.5212 15.4082 16.3639 15.5861C16.0782 15.9094 16.1085 16.4031 16.4317 16.6889C16.5804 16.8203 16.765 16.8848 16.9489 16.8848C17.165 16.8848 17.3801 16.7957 17.5345 16.621C17.7208 16.4103 17.9003 16.1891 18.068 15.9636C18.3256 15.6175 18.2537 15.128 17.9075 14.8705Z" fill="#B3C1CD"/>
<path d="M19.2124 11.2065C18.7911 11.1148 18.3747 11.3821 18.2829 11.8037C18.2324 12.0356 18.1714 12.268 18.1014 12.4944C17.9741 12.9066 18.205 13.344 18.6172 13.4714C18.6941 13.4951 18.7717 13.5064 18.8481 13.5064C19.1817 13.5064 19.4906 13.291 19.5943 12.9556C19.6773 12.6869 19.7498 12.4112 19.8097 12.136C19.9014 11.7145 19.634 11.2983 19.2124 11.2065Z" fill="#B3C1CD"/>
<path d="M14.1451 17.3724C13.9376 17.4882 13.7229 17.5964 13.5068 17.694C13.1135 17.8716 12.9387 18.3344 13.1163 18.7276C13.2468 19.0165 13.5311 19.1875 13.8288 19.1875C13.9363 19.1875 14.0455 19.1652 14.1499 19.1181C14.4062 19.0023 14.6608 18.874 14.9068 18.7367C15.2835 18.5263 15.4184 18.0504 15.208 17.6737C14.9978 17.297 14.5218 17.1621 14.1451 17.3724Z" fill="#B3C1CD"/>
<path d="M9.21861 3.75V9.67641L6.35381 12.5412C6.04873 12.8463 6.04873 13.3409 6.35381 13.646C6.50639 13.7986 6.70627 13.8748 6.90627 13.8748C7.10619 13.8748 7.30615 13.7986 7.45873 13.646L10.5523 10.5524C10.6988 10.4059 10.7811 10.2072 10.7811 10V3.75C10.7811 3.31852 10.4313 2.96875 9.99986 2.96875C9.56838 2.96875 9.21861 3.31852 9.21861 3.75Z" fill="#B3C1CD"/>
<path d="M19.2188 1.67969C18.7873 1.67969 18.4375 2.02945 18.4375 2.46094V4.63031C16.6191 1.77844 13.4434 0 10 0C7.32891 0 4.8177 1.0402 2.92891 2.92891C1.0402 4.8177 0 7.32891 0 10C0 12.6711 1.0402 15.1823 2.92891 17.0711C4.8177 18.9598 7.32891 20 10 20C10.0066 20 10.013 19.9992 10.0195 19.999C10.0261 19.9992 10.0325 20 10.0391 20C10.3206 20 10.605 19.9881 10.8843 19.9648C11.3142 19.9287 11.6336 19.551 11.5976 19.1211C11.5616 18.6911 11.1843 18.3716 10.7539 18.4077C10.5178 18.4275 10.2773 18.4375 10.0391 18.4375C10.0325 18.4375 10.0261 18.4383 10.0195 18.4385C10.013 18.4383 10.0066 18.4375 10 18.4375C5.34754 18.4375 1.5625 14.6525 1.5625 10C1.5625 5.34754 5.34754 1.5625 10 1.5625C12.9984 1.5625 15.7561 3.16066 17.2631 5.70312H15.115C14.6835 5.70312 14.3337 6.05289 14.3337 6.48438C14.3337 6.91586 14.6835 7.26562 15.115 7.26562H17.5C17.9758 7.26562 18.4209 7.13191 18.7999 6.90027C18.8243 6.88637 18.8477 6.87141 18.87 6.85527C19.55 6.40797 20 5.63855 20 4.76562V2.46094C20 2.02945 19.6502 1.67969 19.2188 1.67969Z" fill="#B3C1CD"/>
</svg>
